<svg role="img" aria-label="Кот — маскот Human Grade" width="343" height="407" viewBox="0 0 343 407" fill="none" xmlns="http://www.w3.org/2000/svg">
<path d="M37.7998 365.5L37.2998 363.1L40.0998 365.1C43.5998 367.6 43.6998 368 40.5998 368C38.8998 368 38.0998 367.3 37.7998 365.5Z" fill="#82B1B3"/>
<path d="M42.9998 365.7C40.9998 364.5 38.3998 362.7 37.0998 361.8C35.6998 360.9 34.3998 360.3 33.9998 360.5C33.5998 360.7 32.1998 359.7 30.8998 358.2L28.4998 355.5L31.4998 358L34.4998 360.5L32.0998 357.8C30.7998 356.3 29.2998 355.3 28.7998 355.6C27.8998 356.2 21.1998 349.1 17.3998 343.6C13.3998 337.7 8.79983 325.7 8.49983 320.6C8.39983 317.8 7.79983 311.4 7.09983 306.5C6.39983 300.7 6.29983 294.9 6.89983 290.5C7.29983 286.6 7.49983 282.9 7.29983 282.3C6.99983 281.5 7.59983 281 8.99983 281C10.9998 281 11.0998 281.4 10.5998 284.8C9.49983 291.1 9.69983 304.2 10.8998 311.5C12.5998 321.4 19.7998 338.9 23.3998 341.9C24.2998 342.6 23.1998 339.5 21.0998 334.9C15.8998 323.8 13.1998 313.6 12.3998 302.4C11.6998 293.1 12.4998 284 13.8998 284C14.3998 284 14.9998 290.4 15.1998 298.3C15.7998 314.6 17.3998 320.9 24.6998 335.7C28.7998 344 40.5998 359.7 41.7998 358.5C42.0998 358.3 41.7998 357.4 41.0998 356.7C40.1998 355.5 40.4998 355.4 42.6998 355.8C45.9998 356.4 48.1998 357.9 47.3998 359.1C47.0998 359.6 47.2998 360 47.8998 360C48.4998 360 48.7998 360.6 48.5998 361.3C48.4998 361.9 48.4998 362.2 48.6998 361.8C49.7998 359.9 50.9998 361.3 50.9998 364.5C50.9998 367.5 50.6998 368 48.7998 367.9C47.4998 367.9 44.8998 366.8 42.9998 365.7Z" fill="#82B1B3"/>
<path d="M158.7 357.4C158.3 357 158.9 355.5 159.9 354.1C163.1 349.6 166.4 338.3 166.9 329.8C167 329.3 167.4 329 167.9 329C168.5 329 169.1 330.5 169.3 332.3L169.7 335.5L169.8 332.3C170 329.5 170.4 329 172.5 329C174.9 329 175 329.2 175 335.3C174.9 346.3 172.5 353 168.5 353C167.3 353 167.1 352.6 168 351.1C168.5 350 169 348.5 169 347.8C169 347.1 168 348.4 166.8 350.8C165.6 353.1 164 355 163.3 355C162.5 355 161.7 355.7 161.4 356.5C160.8 358.1 159.7 358.4 158.7 357.4Z" fill="#82B1B3"/>
<path d="M14.9997 277.1C15.9997 273.6 17.7997 270 19.7997 267.8C20.5997 266.8 20.7997 266 20.1997 266C19.5997 266 18.9997 265.2 18.7997 264.3C18.5997 263.3 16.9997 266 14.9997 270.8C12.3997 277.1 11.1997 279 9.69968 279C7.89968 279 7.79968 278.5 8.29968 273.6C8.59968 270.6 9.79968 266.1 10.8997 263.5C12.8997 259.1 13.0997 258.9 16.6997 259.2C19.6997 259.4 20.5997 259.9 20.7997 261.7C20.9997 262.9 21.7997 264 22.6997 264.2C23.7997 264.4 23.4997 265.4 21.0997 268.4C19.3997 270.5 17.4997 274 16.7997 276.1C16.1997 278.3 15.2997 280 14.8997 280C14.4997 280 14.4997 278.7 14.9997 277.1Z" fill="#82B1B3"/>
<path d="M82 271.1C82 268.1 87.2 258.1 94.3 247.5C101.1 237.3 108.9 228 122 214.5C129 207.3 135.4 200.3 136.4 198.8C137.9 196.5 139 196 142 196C147.2 196 149 196.8 149 199.2C149 200.3 148.5 200.8 148 200.5C146.7 199.7 144.3 201.6 142.9 204.4C142.1 206 142.4 205.9 144.3 203.8L146.8 201.2L147.4 206.9C147.8 210.1 147.8 213.4 147.4 214.3C147 215.5 147.2 215.9 148.2 215.5C151.1 214.4 153.4 219.9 153.5 228C153.5 238.1 151.3 243.4 144.5 249.9C141.5 252.7 138.8 255 138.3 255.1C137.9 255.1 135.7 255.3 133.5 255.5C131.2 255.8 129.3 255.5 128.9 254.8C128.4 254 127.2 254.5 125.1 256.2C123.5 257.6 118.7 260.5 114.6 262.6C107.7 266 106.8 266.2 104.5 265C103.1 264.3 102 263 102 262.3C102 261.4 101.5 261.2 100.8 261.7C100.1 262.1 98.3 262.3 96.8 262.1C94 261.8 91.9 264.2 88.7 271.3C87.8 273.3 86.8 274 84.8 274C82.4 274 82 273.6 82 271.1ZM128.5 239.5C133.3 232.9 137.7 226.9 138.3 226.3C138.8 225.6 138.9 225 138.4 225C137.9 225 136.2 226.9 134.6 229.3C132.9 231.6 127.9 238.5 123.3 244.7C118.7 250.8 115 256.1 115 256.5C115 257.5 118.9 252.6 128.5 239.5ZM140.7 246.3C145.2 239.9 150.5 230.1 149.8 229.5C148.9 228.6 147.1 230.8 144.5 236C143 239 140.5 243.3 139 245.5C135.1 251.3 134.8 252 135.8 252C136.3 252 138.5 249.4 140.7 246.3ZM133.6 244.5C136.1 240.9 138 237.7 137.8 237.4C137.5 237.2 135.5 239.6 133.4 242.7C128.2 250.5 127.8 251 128.4 251C128.7 251 131 248.1 133.6 244.5Z" fill="#82B1B3"/>
<path d="M23 242C23 239.7 23.8 236.5 24.7 234.7C25.6 232.9 27.8 227.7 29.6 223L32.8 214.5L36.9 214.2C41.2 213.9 41.9 214.5 39.7 216.4C38.9 217 36.6 222.2 34.5 228C29.4 242.3 27.4 246 25 246C23.3 246 23 245.3 23 242Z" fill="#82B1B3"/>
<path d="M29.0996 245.5C29.0996 243.7 31.8996 239.4 31.9996 241.1C31.9996 241.9 31.2996 243.5 30.4996 244.6C29.6996 245.6 29.0996 246.1 29.0996 245.5Z" fill="#82B1B3"/>
<path d="M210.399 398.9C207.699 397.2 203.399 393.6 200.799 391C196.699 386.7 195.999 386.4 195.499 388.1C194.599 390.9 192.999 390.4 192.999 387.3V384.5L191.399 387.8C190.099 390.2 189.099 391 186.999 391C184.599 391 184.199 390.5 183.599 387.3C182.599 381.2 182.799 380.6 184.499 382C185.299 382.7 185.999 384.1 185.999 385.1C185.999 386.2 186.399 387 186.899 387C188.399 387 186.199 381.5 183.899 379.4C182.899 378.5 181.999 376.4 181.999 374.8V372L184.599 373.7C187.199 375.4 187.299 375.4 186.299 373.5C185.699 372.4 184.999 368.9 184.799 365.8C184.399 360.9 184.599 360 185.999 360C187.399 360 186.999 358.1 183.399 347.5C180.999 340.6 178.399 334.2 177.499 333.4C176.699 332.5 175.899 330.7 175.899 329.2C175.799 327.2 175.499 327.5 174.999 330.5C174.299 334.2 174.299 334.3 174.099 331.3C174.099 329.6 173.499 328 172.999 327.8C172.399 327.6 171.799 323.7 171.499 319C171.299 314.3 171.399 311.4 171.799 312.4C172.299 313.4 172.499 305.3 172.299 294.4C171.899 274 172.899 265.2 175.799 264.2C176.799 263.9 176.899 264.5 176.299 266.7C175.899 268.2 175.499 273.8 175.599 279C175.599 286.3 176.299 290.3 178.299 296.5C179.699 300.9 181.599 307.2 182.499 310.5C183.399 313.8 185.999 320.6 188.199 325.5C190.399 330.5 193.999 339.5 195.999 345.5C198.099 351.6 201.599 361.1 203.899 366.6C206.199 372.2 207.999 377.4 207.999 378.2C207.999 379 209.299 380.9 210.899 382.4C212.499 383.9 213.999 386.4 214.299 387.9C214.699 389.5 215.899 391.1 217.499 391.8C220.899 393.4 221.499 393.3 219.999 391.5C218.899 390.2 219.099 390 221.299 390C224.199 390 224.999 391.6 224.999 397C224.999 400.4 224.699 400.8 221.899 401.4C216.799 402.4 215.599 402.1 210.399 398.9Z" fill="#DB7654"/>
<path d="M127.5 398.9C102.7 396.5 92.8999 393 87.1999 384.5C85.2999 381.7 83.1999 379.4 82.3999 379.2C80.7999 378.8 80.4999 375 81.9999 375C82.5999 375 82.2999 373.9 81.2999 372.6C80.0999 371 79.2999 370.6 78.7999 371.4C78.2999 372.1 77.4999 371.8 76.4999 370.3C74.8999 368 71.9999 367.2 71.9999 369C71.9999 370.1 64.9999 370.4 64.9999 369.3C64.9999 368.8 64.0999 367.4 62.9999 366L60.9999 363.5L62.3999 366.9C63.2999 369.3 64.6999 370.6 67.0999 371.4C68.8999 372 70.4999 373.1 70.7999 373.9C71.3999 375.6 67.4999 374.8 55.9999 371C51.3999 369.4 47.3999 368.3 47.1999 368.5C46.8999 368.7 47.8999 369.4 49.3999 370C50.7999 370.5 53.0999 371.4 54.4999 372C57.3999 373.1 57.7999 375 55.0999 375C51.2999 375 42.9999 370.8 42.9999 368.9C42.9999 367.6 43.4999 367.2 44.7999 367.6C45.8999 368 45.5999 367.5 43.9999 366.1C42.5999 365 40.9999 364 40.3999 364C39.7999 364 38.4999 363.1 37.4999 362C35.7999 360.1 35.7999 360 37.4999 360C38.4999 360 40.8999 361 42.7999 362.2C46.5999 364.5 46.4999 363.9 42.0999 358.1C40.6999 356.2 38.2999 352.2 36.6999 349.1C34.7999 345 34.0999 344.3 34.4999 346.5L35.0999 349.5L33.1999 347.1C30.6999 344 28.1999 333 26.4999 317.9C25.5999 309.7 25.4999 304.8 26.0999 303.1C26.8999 301.1 27.2999 300.9 27.9999 302C28.6999 303.1 29.0999 302.8 29.8999 300.7C30.4999 299.1 30.9999 297.4 30.9999 296.9C30.9999 296.4 31.8999 296 32.8999 296C34.4999 296 34.9999 296.9 35.4999 300.8C37.1999 314.2 40.7999 322.6 48.4999 330.8C51.3999 334 56.1999 337.8 59.0999 339.3C64.2999 342 64.4999 342 64.7999 340C64.9999 338.6 65.8999 338 67.5999 338C69.4999 338 69.9999 338.5 70.0999 340.8C70.0999 342.3 70.4999 344.4 70.9999 345.5C71.5999 346.8 71.6999 345.9 71.1999 343C70.7999 340.5 70.4999 329.5 70.5999 318.5C70.5999 299.9 70.7999 297.9 73.1999 290C74.6999 285.3 77.1999 278.5 78.8999 274.8C81.4999 268.9 82.2999 268 84.5999 268C86.7999 268 87.0999 268.2 85.9999 269.5C84.9999 270.7 84.9999 271 86.3999 271C88.3999 271 88.4999 270.1 85.0999 282.2C81.3999 295.5 80.5999 299 81.9999 297C82.4999 296.2 82.9999 294.8 82.9999 294C82.9999 293.2 84.0999 290.3 85.3999 287.5C86.7999 284.8 88.0999 280.8 88.4999 278.7C88.8999 276.1 89.4999 275 90.3999 275.3C91.1999 275.6 92.2999 275.3 92.8999 274.7C93.6999 273.9 93.9999 275.1 93.9999 279.4C93.9999 284.5 94.1999 285.1 95.4999 284C96.7999 283 96.9999 283.1 96.9999 285.1L97.0999 287.5L98.2999 285.2C100.1 282 101 283.4 101 289.4C101 293.1 101.3 294.1 102 293C102.7 291.9 103 291.9 103 292.8C103 293.5 103.4 293.8 104 293.5C105.2 292.7 107.1 297.3 113.2 315.5C118.9 332.8 121.1 344.9 119.1 347.4C118 348.6 117.4 348.8 116.4 347.9C115.3 347 115 347.4 115 349.9C115 353.4 113.5 357 112 357C110 357 105.3 337.9 102.5 318.5L101.1 308.5L101.5 318C102 329.3 104.2 341.4 107.7 352.8C110 360.3 110.1 361.4 108.7 362.7C107.4 364.1 107.1 364 106.1 362.1C104.5 359.3 101.4 348.8 99.9999 341.7C99.3999 338.5 98.5999 336 98.3999 336.3C97.7999 336.9 100.7 351.1 103.1 358.9C104.5 363.7 104.7 365.6 103.9 366.6C101.8 369.1 100.4 368.1 97.4999 362C95.8999 358.7 94.4999 356.2 94.2999 356.4C93.9999 356.6 94.9999 359 96.3999 361.7C99.4999 368 99.9999 371.9 97.8999 373.3C96.4999 374.1 95.6999 373.8 93.4999 371.4C91.2999 369 91.0999 368.9 91.9999 370.8C93.4999 373.8 92.4999 374.8 89.8999 373.1C88.6999 372.4 87.5999 372.1 87.2999 372.4C86.2999 373.3 92.0999 380.1 94.5999 381C99.6999 383 126.4 387 144 388.5C154.2 389.4 164 390.3 165.8 390.6C169 391.1 170.2 393.4 167.8 394.3C167 394.6 167.2 394.9 168.3 394.9C171.4 395.1 170.3 398.7 166.9 399.4C162.6 400.2 138.5 399.9 127.5 398.9ZM154.6 397.2C152.7 397 152.1 396.6 152.9 396.1C154.8 394.9 135 393.8 131.5 394.8L128.5 395.7L132 396.4C138.1 397.5 152.4 398.6 155 398C157.4 397.5 157.4 397.5 154.6 397.2ZM53.7999 361.5C50.1999 354.3 49.3999 353.6 51.4999 359.5C53.1999 364.3 53.3999 366.3 51.9999 365.5C51.4999 365.2 50.9999 365.1 50.9999 365.5C50.9999 366 54.6999 367.8 56.1999 367.9C56.5999 368 55.4999 365.1 53.7999 361.5ZM56.4999 356C55.5999 354.4 54.6999 353 54.3999 353C54.1999 353 54.5999 354.4 55.4999 356C56.3999 357.7 57.2999 359 57.5999 359C57.7999 359 57.3999 357.7 56.4999 356ZM96.2999 337.1C93.5999 321 91.4999 315.5 92.5999 327.3C93.4999 337.8 97.3999 354.9 98.5999 353.7C98.7999 353.5 97.7999 346 96.2999 337.1ZM105.5 303C105.1 299.1 104.6 296.1 104.3 296.3C104.1 296.6 104.2 300 104.6 303.9C104.9 307.9 105.5 310.9 105.7 310.6C106 310.3 105.9 306.9 105.5 303Z" fill="#DB7654"/>
<path d="M256.299 391.399C250.699 388.599 248.199 385.599 247.499 380.699C246.299 372.899 249.099 371.599 252.999 378.099C256.599 383.899 257.799 384.999 260.899 384.999C262.499 384.999 264.399 385.799 265.099 386.699C266.299 388.099 266.299 388.299 264.999 387.599C264.099 387.199 264.199 387.499 265.299 388.299C267.699 390.299 267.399 390.999 263.999 390.999C262.399 390.999 260.999 391.499 260.999 391.999C260.999 393.399 260.099 393.199 256.299 391.399Z" fill="#DB7654"/>
<path d="M237.9 385.8C237.2 384.5 235.1 381.6 233.2 379.3C231.2 376.7 230 374.4 230.4 373.5C230.7 372.6 230.6 369.8 230 367.2C229.5 364.6 228.2 356.4 226.9 349C225.7 341.6 224.3 335.2 223.7 334.9C222.7 334.2 223.3 304.2 224.6 296.5C225.4 291.4 226.7 288 227.8 288C228.3 288 228.9 295.7 229.2 305C229.5 314.4 230 322.3 230.3 322.6C230.6 322.9 231.9 322.2 233.2 321L235.5 318.9L235.8 321C236 322.1 235 324.4 233.6 326C231.1 329 229.2 335.5 230.4 336.7C230.7 337.1 231.1 337.1 231.3 336.9C238.7 327 241.1 323.3 241.6 321.4C242.6 317.6 245 318.4 245 322.5C245 324.4 245.5 326 246 326C247.3 326 247.3 332.7 246 333.2C245 333.5 246.8 350.4 249.1 362.3C250.4 369.3 250.2 372 248.6 372C247.8 372 246.8 370.8 246.3 369.3C245.4 366.8 245.3 367.1 244.6 372.4C244.3 375.6 243.5 379 243 380C242.3 381.3 242.6 382.4 244 384C246.8 387.2 246.5 388 242.5 388C240 388 238.8 387.4 237.9 385.8ZM240.8 372.2C241.4 369.9 241.6 368 241.3 368C241.1 368 239.8 369.2 238.5 370.8C236.4 373.3 236.3 373.6 237.7 375.3C239.7 377.4 239.7 377.4 240.8 372.2ZM239.7 342.2C241.1 339.8 242 337.7 241.8 337.5C241.6 337.2 240.5 338.7 239.3 340.8C238.2 342.9 236.5 345.9 235.6 347.5C234.1 350 234.1 350.2 235.5 348.5C236.4 347.4 238.3 344.6 239.7 342.2ZM237.1 336.9C239.4 333.1 241 329.7 240.7 329.3C240.3 329 239.7 329.6 239.4 330.6C239 331.6 236.9 335.1 234.8 338.2C232.7 341.3 231 344.2 231 344.5C231 346.2 233.4 343.2 237.1 336.9Z" fill="#DB7654"/>
<path d="M267.6 381.9C265.6 378.5 266.2 377 268.8 378.6C270.6 379.7 271.8 385 270.3 385C269.8 385 268.6 383.6 267.6 381.9Z" fill="#DB7654"/>
<path d="M280.2 370.8C276.9 369.2 276.5 365.7 278.4 357.3C279.8 351.6 280.6 350 281.9 350C283.4 350 283.9 351.5 285 359.3C285.7 364.6 286.9 369.2 287.8 370.3C289.2 371.9 289.1 372 285.9 371.9C284 371.9 281.5 371.4 280.2 370.8Z" fill="#DB7654"/>
<path d="M157 368.4C157 365.3 165.6 355 168.3 355C170.4 355 170.4 354.8 168 360.6C166.9 363.2 166.1 365.3 166.2 365.4C166.4 365.5 168.2 366.3 170.3 367.3C176.2 370 174.9 371 165.5 371C157 371 157 371 157 368.4Z" fill="#DB7654"/>
<path d="M36 365C36 362.7 36.8 362.5 39.3 364.4C41.7 366.2 41.4 367 38.5 367C36.7 367 36 366.5 36 365Z" fill="#DB7654"/>
<path d="M277 338.3C277 328.7 279 315.5 282.6 301.2C285.9 288.2 285.9 287.6 284.3 285.7C282.9 284.3 282.5 281.9 282.4 276.1C282.2 264.5 282.2 264.2 279.5 261.8C274.2 256.8 273.9 234.1 278.9 211.3C279.9 206.8 280.5 201.7 280.2 200C279.8 197.2 280 197 282.7 197H285.7L288.3 209.3C293.3 232.4 293.5 234.4 293.4 262L293.3 288.5L288.7 311C282.2 342.3 281.8 343.4 279.2 343.8C277.2 344.1 277 343.7 277 338.3Z" fill="#DB7654"/>
<path d="M20.3 266.299C19.6 266.099 19 265.199 19 264.399C19 263.599 18.3 262.699 17.5 262.399C16 261.799 15.3 256.999 16.8 256.999C17.2 256.999 18.6 254.999 19.8 252.499C21 249.999 22.6 247.999 23.4 247.999C24.2 247.999 25.2 247.099 25.5 245.999C25.8 244.899 26.6 243.999 27.1 243.999C27.6 243.999 27.1 245.799 25.9 248.099C24.8 250.399 24.3 251.899 24.9 251.499C25.6 251.199 27.4 248.199 29 244.899C32.6 237.899 35.5 236.899 36.5 242.299C37.7 248.999 32 261.099 26.7 262.899C25.2 263.499 23.7 264.599 23.4 265.499C22.8 267.099 22.3 267.199 20.3 266.299ZM33.9 240.499C33.9 239.999 32.8 241.299 31.5 243.499C30.1 245.699 29 247.999 29 248.499C29 249.099 30.1 247.699 31.5 245.499C32.8 243.299 33.9 241.099 33.9 240.499Z" fill="#DB7654"/>
<path d="M243.799 239.4C242.899 238.6 245.999 230 247.199 230C248.599 230 247.399 237 245.699 238.7C244.999 239.4 244.099 239.8 243.799 239.4Z" fill="#DB7654"/>
<path d="M257 237.199C257 235.899 261.9 224.299 262 225.599C262 227.599 258.9 236.899 258 237.499C257.4 237.799 257 237.699 257 237.199Z" fill="#DB7654"/>
<path d="M264 230.8C264 225.1 264.9 222 266.6 222C268.3 222 268.5 227.3 266.9 231.9C265.4 236.3 264 235.8 264 230.8Z" fill="#DB7654"/>
<path d="M271 227.6C271 223.5 273.4 211 274.1 211C275.3 211 275.2 219.7 274 224.2C272.9 228.1 271 230.2 271 227.6Z" fill="#DB7654"/>
<path d="M36.2996 206.3C36.4996 195.7 36.3996 195.4 33.2996 190.5C31.4996 187.7 27.5996 183 24.3996 180C16.7996 172.5 11.4996 165.3 7.29965 156.5C2.89965 147.2 2.19965 142.4 4.39965 136.5C7.39965 128.8 18.0996 121.9 27.1996 121.8C32.4996 121.8 42.8996 126.2 43.7996 128.8C44.2996 130.4 40.4996 130.3 35.4996 128.5C30.5996 126.8 22.9996 126.6 19.4996 128.2C16.6996 129.5 13.9996 133.7 13.9996 136.8C13.9996 137.8 14.8996 141.6 15.8996 145.1C16.9996 148.6 18.7996 154.7 19.8996 158.7C21.6996 164.6 22.6996 166.5 26.2996 169.5C28.5996 171.6 31.4996 173.7 32.6996 174.2C33.8996 174.8 35.6996 176.9 36.6996 178.9C38.2996 182.1 38.4996 182.3 38.7996 180.3C39.5996 174.8 42.6997 179.2 43.8997 187.8L44.7996 193.5L44.8997 186.8C44.9997 179.7 46.3996 177.4 48.6996 180.5C49.4996 181.7 50.0996 185.7 50.0996 191.9L50.2996 201.5L51.1996 194C52.4996 184.1 52.6996 183.3 54.2996 184.9C56.5996 187.2 55.5996 198.9 52.4996 205.7C49.1996 213.2 47.5997 214.8 45.3997 212.9C43.8997 211.7 42.8996 212.3 41.7996 215.2C41.5996 215.5 40.2996 216.1 38.7996 216.5L36.1996 217.2L36.2996 206.3Z" fill="#DB7654"/>
<path d="M165 205.3C163.6 205.1 157.8 203.5 152.1 201.8C142.1 198.7 141.7 198.6 140.4 200.5C139.1 202.2 139 202.1 139 199C139 197.2 140 193 141.2 189.8L143.3 183.9L137.9 179C135 176.2 132.3 174 131.8 174C130.3 174 124 164.6 124 162.4C124 161.1 123.6 160 123 160C120.4 160 115.8 141.6 114.5 126.3C113.9 118.4 114 118 115.9 118C117.6 118 118 118.7 118.1 121.3C118.1 124.4 118.2 124.3 119.6 120C121.2 114.8 121.5 111.7 120.1 113.8C119.6 114.7 119 113.2 118.6 109.3C118.2 106.1 117.7 101.3 117.4 98.6C116.8 93.2 115.2 88.2 115.1 91.3C115 93.4 111 93.7 111 91.5C111 90.7 110.3 90 109.5 90C108.5 90 108 88.9 108 86.5C108 83.9 108.4 83 109.6 83C110.8 83 111.1 82.4 110.6 80.8C110.3 79.5 109.7 69.6 109.3 58.7L108.7 39H110.8C112.5 39 113 39.6 113.1 41.8C113.2 43.7 113.5 43.3 114.1 40.1C114.6 37.7 115.1 35.5 115.4 35.3C115.6 35.1 117.7 36 120 37.5C125.6 41.1 126 40.2 120.5 36.5C118 34.8 116 33.2 116 32.8C116 32.3 117.6 32 119.5 32C121.4 32 123 32.5 123 33C123 33.6 123.6 34 124.4 34C125.1 34 127.3 35.3 129.3 36.9C131.3 38.4 136 41.6 139.8 43.9C143.5 46.1 148.3 49.5 150.3 51.4C153.4 54.2 154 54.5 154 52.9C154 51.8 154.3 51 154.8 51C155.2 51 158.3 53.3 161.8 56.1C167 60.4 168.3 61 169.5 60C170.3 59.3 171 59 171 59.3C171 59.6 174.3 58.9 178.3 57.9C188.7 55.2 202.5 53 209.8 53C215.8 53 216 52.9 216 50.4C216 47.9 216.2 47.8 219.8 48.5C221.8 48.8 224.4 49.4 225.6 49.6C227.1 50 228.5 49.3 230.3 47.1C234.1 42.5 235.3 43.1 234.8 49.1C234.5 51.8 233.9 54.5 233.4 54.9C232.9 55.4 228.9 55.4 224.6 54.9C220.2 54.5 216 54.5 215.2 54.9C214.4 55.4 212.7 58.2 211.5 61.1C210.2 64.1 208.7 66.5 208 66.5C207.4 66.5 206 68 204.9 69.7C202.3 73.7 203.2 74 206.5 70.3C209.9 66.4 209.6 68.7 206 74.3C203.1 79 201.2 80.5 202.4 77.3C203 75.8 202.9 75.7 201.3 77.2C188.9 87.9 165.1 107.2 160 110.5C153.8 114.6 149 119.1 144 125.5C141.8 128.4 141.7 128.4 142.3 126L142.9 123.5L140.9 126C136.1 131.9 131.1 141 132.5 141C133.3 141 134 141.6 134 142.4C134 143.3 132.5 144.1 130 144.5C125.5 145.3 125 146.7 127.4 152.4C128.6 155.3 129.2 155.7 131.4 155.3C134.6 154.6 135.1 157.5 131.9 158.3C129.8 158.9 129.8 158.9 131.7 162C132.7 163.7 134.4 166 135.6 167.1C137.4 168.8 138.1 168.9 140.4 167.9C143.8 166.3 145 167.6 142.1 169.6L139.9 171.2L145.1 174.8C153.7 180.6 166.2 185.9 178.6 189.1C185.1 190.7 190.7 192.3 191.1 192.6C192.6 193.5 192.1 195.8 190.2 196.4C187 197.4 163.8 193.3 155.1 190.1C145.3 186.6 143 186.8 151.3 190.5C158.6 193.7 170.5 196.8 178.6 197.6C188.6 198.6 186.5 200.4 176.3 199.7C168.8 199.1 161.6 197.5 147.8 193C142.4 191.3 145.1 193.8 150.8 195.8C161.9 199.9 168.6 201.3 179.5 202L190.5 202.6L186.8 204.3C183.2 205.9 172 206.4 165 205.3ZM150.5 112C156.7 104.2 156.8 103.9 152.5 108C147.7 112.6 141 121.1 141 122.6C141 123.7 142.7 121.8 150.5 112ZM134.2 83.3C137.6 80 139.3 75.9 137.3 76C136.3 76.1 128.7 87 129.7 87C130.1 87 132.1 85.3 134.2 83.3ZM143.6 73.2C142.7 72.3 139 76.2 139 77.9C139.1 79 139.8 78.7 141.6 76.6C143 75.1 143.9 73.5 143.6 73.2ZM132.7 70.1C132.2 69.9 130.1 71.4 128.1 73.5L124.5 77.2L129.1 73.9C131.6 72 133.2 70.3 132.7 70.1ZM158 63.7C151.7 58 149.3 56.6 154.8 61.9C157.7 64.7 160.4 67 160.8 67C161.2 67 159.9 65.5 158 63.7ZM134.4 59.8C133.7 58.7 131.3 60.6 129.9 63.3C128.9 65 129.2 64.9 131.9 62.9C133.6 61.7 134.7 60.3 134.4 59.8ZM123.3 51.2L122.8 47.5L125.5 50C127.8 52.1 128.1 52.2 127.2 50.5C125.6 47.3 122 44.4 121.8 46.1C121.2 51.7 121.6 56.7 122.6 55.9C123.3 55.3 123.6 53.4 123.3 51.2ZM118 46.4C120.4 42.6 120.3 40.9 117.8 43.7C116.2 45.5 114.5 50 115.4 50C115.6 50 116.8 48.4 118 46.4ZM117.4 41.4C118.3 39.2 117.1 38.2 116 40C114.8 41.9 114.8 43 115.9 43C116.4 43 117.1 42.3 117.4 41.4Z" fill="#DB7654"/>
<path d="M276 183.4C275.4 182 275 180.4 275 179.9C275 178.6 272.8 178.9 270.6 180.5C267.8 182.6 267 182.4 267 179.5C267 178 267.6 177 268.4 177C269.1 177 270 176.1 270.3 175C270.7 173.4 271.7 173 274.7 173C278.5 173 278.8 173.2 279.8 176.9C281.7 182.9 281.4 186 279 186C277.7 186 276.6 185 276 183.4Z" fill="#DB7654"/>
<path d="M114 111.1C114 110.5 114.5 109.8 115.1 109.4C115.9 109 115.9 108.5 115.1 107.7C113.8 106.4 113.6 101.3 114.9 100.6C115.4 100.2 116.3 102.3 116.9 105C118.4 111.8 118.3 112 116 112C114.9 112 114 111.6 114 111.1Z" fill="#DB7654"/>
<path d="M283.2 77.5002C281.6 74.1002 283.9 74.1002 287.7 77.5002L290.5 79.9002L287.4 80.0002C285.1 80.0002 284 79.4002 283.2 77.5002Z" fill="#DB7654"/>
<path d="M286.099 74.5998C285.399 73.7998 283.899 72.8998 282.599 72.5998C279.499 71.7998 278.299 68.5998 276.499 55.4998C275.699 49.4998 273.399 37.7998 271.499 29.5998C269.599 21.3998 268.3 14.2998 268.7 13.6998C269.1 13.0998 268.699 12.8998 267.599 13.2998C266.399 13.7998 266 13.5998 266.2 12.7998C266.5 12.0998 267.799 11.3998 269.299 11.1998C271.499 10.8998 272.199 11.4998 273.899 14.8998C277.399 21.5998 284.699 50.2998 288.399 71.6998C288.999 75.2998 287.799 76.6998 286.099 74.5998Z" fill="#DB7654"/>
<path d="M217.5 402.2C214.7 401.3 209.8 398.6 206.5 396.2C199.6 391.4 196 386.2 190.2 372.2C188.1 367.2 186.1 363.3 185.8 363.6C185.4 363.9 184.9 363.3 184.7 362.3C184.4 361.3 182.8 356 181.1 350.5C178.3 341.2 177 335.6 176.5 330.6C176 325.8 175.7 327.1 175 336.6C174.5 345.2 173.9 347.7 171.2 353.1C169.5 356.6 166.2 361.4 163.9 363.8L159.8 368H165.7C174.7 368 180.8 370.2 185.8 375.3C190.7 380.3 192.4 384.9 190.8 388.5C190.2 389.9 188.9 391.2 187.8 391.5C186.8 391.9 186 392.6 186 393.1C186 394.9 177.5 397.9 171.9 398.2C168.9 398.3 162.2 397.9 157 397.3C151.8 396.6 139.6 395.4 130 394.5C120.4 393.6 109.3 392.2 105.4 391.4C99.0004 390.1 97.6004 389.3 92.2004 384.4L86.3004 378.9L75.4004 378.6C46.9004 377.7 24.7004 363.6 11.6004 338.1C0.000405312 315.5 -1.89959 294.7 5.80041 273.5C7.10041 269.7 12.7004 257.7 18.0004 247C31.6004 220 35.0004 208.6 33.6004 195.6C33.2004 192.3 32.9004 188.6 32.9004 187.6C32.9004 184.4 31.0004 181.8 24.2004 175.6C20.7004 172.3 15.9004 166.8 13.6004 163.3C11.2004 159.8 9.00041 157.3 8.50041 157.8C8.00041 158.2 8.00041 158 8.30041 157.4C8.70041 156.7 8.30041 154.6 7.50041 152.6C6.70041 150.7 6.00041 146.7 6.00041 143.7C6.00041 134.2 12.4004 127.2 23.0004 125.1C27.6004 124.2 29.8004 124.3 36.2004 125.9C44.6004 128 47.4004 129.6 53.6004 136.2C59.7004 142.7 63.5004 147.9 66.8004 154.5C72.0004 164.9 73.4004 171.8 73.5004 188C73.5004 208 71.3004 216.2 58.2004 244.2C44.6004 273.4 40.8004 285.7 40.7004 300.5C40.7004 312.1 44.5004 322.9 51.8004 331.9C55.5004 336.4 65.7004 343.7 66.8004 342.5C67.2004 342.2 66.9004 341.5 66.2004 341.1C62.7004 339 62.1004 315.3 65.0004 300.8C71.5004 268.9 80.5004 252.8 107 225.5C129.6 202.2 141 188.8 141 185.5C141 184.5 131.7 178 130.4 178C129.3 178 118.9 185.9 114.8 189.8C112.7 191.8 111 192.9 111 192.2C111 190.9 117 184.8 123.8 179.2L128 175.7L123.3 170.1C120.7 167 118.5 164.4 118.4 164.2C118.3 163.9 102.2 173.1 99.0004 175.2C98.2004 175.8 99.3004 174.6 101.5 172.5C103.7 170.5 107.8 167.5 110.7 165.9C113.6 164.2 116.2 162.5 116.4 162.1C116.8 161.5 113.3 150.4 112.3 149.1C111.7 148.3 100.7 152.2 93.6004 155.6C89.8004 157.5 86.5004 158.8 86.2004 158.6C85.0004 157.3 107.3 146 110.9 146C111.5 146 111.9 141.7 111.9 135.2C111.9 123.9 113.5 111.1 115 109.6C115.5 109.1 115.1 107.7 114 106.3C108.3 99.0999 105.5 81.0999 106.6 59.4999C107.6 39.6999 110.9 27.9999 114.9 29.4999C115.8 29.8999 118.6 30.4999 121.2 30.9999C123.8 31.4999 128.6 33.2999 131.8 34.8999C140.3 39.1999 157.8 52.4999 157.7 54.4999C157.6 55.3999 159.3 57.6999 161.6 59.5999L165.7 62.9999L169.4 60.0999C173.3 56.9999 188.5 51.6999 198.5 50.0999C209.3 48.2999 220 47.5999 220 48.7999C220 49.3999 219.2 50.0999 218.3 50.2999C217.3 50.5999 217.9 50.7999 219.6 50.8999C222.5 50.9999 224.9 53.2999 223.2 54.2999C222.8 54.5999 218.9 55.0999 214.5 55.3999C197.2 56.8999 179.6 60.6999 166.8 65.5999L162.1 67.4999L157.8 63.3999C151.2 57.0999 142.1 49.9999 133.5 44.4999C129.2 41.7999 123.1 37.7999 119.9 35.7999C116.7 33.6999 113.9 32.3999 113.6 32.8999C112.1 35.2999 112 58.1999 113.4 74.9999C115 94.2999 115.2 96.1999 116.9 105.7C117.5 108.9 117.9 115.5 117.9 120.4C117.9 125.3 118.4 132.4 119.1 136.1C120.5 144 120.2 143.8 130.3 141.5C142.5 138.7 175 137.7 177.5 140.1C178 140.6 174.2 141 167.7 141C152.7 141 125.5 144.3 121.8 146.6C121.1 147.1 123.6 154.7 125 156.3C125.3 156.7 128.7 155.9 132.5 154.5C142.2 150.8 162.6 146 168 146.1C172.1 146.2 171.8 146.3 164 148.1C153.4 150.6 128.2 158.9 127.4 160.2C126.7 161.3 131.8 168.9 134.2 170.4C135.2 171 137.1 170.2 140.6 167.7C150.8 160.4 175.9 148.5 177.6 150.2C177.9 150.5 171.2 154.2 162.8 158.3C154.4 162.5 145.1 167.4 142.2 169.3L136.8 172.7L141.2 176.2C150.2 183.6 163.3 190 174.1 192.2C181.6 193.7 179.7 195.3 171.5 194.4C165.2 193.7 152 189.7 148.4 187.3C146.4 186.1 146.2 186.2 145.1 190.2C142.9 197.8 139.2 202.8 124.7 217.8C104.5 238.8 93.8004 253.6 83.6004 274.3C76.1004 289.6 73.8004 299 73.3004 316.5C72.7004 332.6 74.1004 343.2 78.2004 356C80.9004 364.4 82.4004 367.3 87.4004 374C89.6004 377 92.1004 380.7 92.8004 382.1C93.8004 383.9 95.0004 384.7 96.8004 384.7C98.3004 384.7 106 385.8 114 387.3C122 388.7 134.2 390.4 141.2 391.1C155.6 392.4 173 391.6 173 389.6C173 388.9 171.4 386.5 169.5 384.3C167.5 382 166.3 379.9 166.8 379.6C168.4 378.7 173.9 383.4 176.3 387.8L178.6 392L180 389.5C181.2 387.2 181.1 386.4 179.1 382.3C177.9 379.8 177.1 377.5 177.4 377.2C178.1 376.6 183.1 379.8 184.7 381.9C185.4 382.8 186 384.3 186 385.2C186 386.1 186.5 387.2 187.1 387.6C189.1 388.8 187.1 382.8 184.7 380.2C183.6 379 179.9 376.6 176.6 375C169.7 371.5 162.5 371.1 152.5 373.5C139.8 376.5 137.1 374.7 148 370.4C156.6 367.1 163.7 360.1 168 350.7C171.2 343.9 173.2 332 171.1 332C170.4 332 170 329.8 169.9 326.3C169.8 321.8 169.5 323.1 168.5 332C167.5 341 166.6 345 164.1 350.5C160.1 359.2 156.3 363.3 148 367.5C139.3 371.8 137 372.5 137 370.7C137 369.9 139.4 368.4 142.8 367.1C153.9 363.1 160.1 356.8 164.1 345.5C168.3 333.6 167.3 316.5 161.8 305.1C158.8 298.9 151.5 292 144.1 288.4C140.8 286.8 138 285.2 138 284.8C138 283.4 142.9 284 148.1 286C159.3 290.5 167.4 298.5 170.7 308.7C172.5 314.5 174.2 315 173 309.3C172.5 307.3 172.2 301.1 172.2 295.6C172.3 284.2 172.5 284.7 176.1 306.5C178.3 320.2 182.4 333.9 192.2 361C199.8 381.9 201.5 385.1 208.6 392.8C214.3 399 214.6 399.2 218.3 398.5C222.6 397.7 222.9 396.3 219.9 391.3C218.7 389.4 218 387.6 218.4 387.3C219.5 386.2 223.7 389.9 225.4 393.4C227.3 397.4 227.8 397.6 230.6 395.6C232.6 394.1 232.6 394.1 229.5 386.8C228.1 383.3 231.9 384.9 234.9 389C238.3 393.7 239.4 392.9 238.4 386.4C237.7 381.8 233.9 376 231.5 376C229.9 376 227.5 367.2 225.6 354C223.3 338 222.9 332 223.9 332C224.5 332 224.6 326.4 224.3 317.7C223.7 303.1 224.5 295.4 227.6 285C229.9 277.4 230.4 280.2 228.6 290.2C226.2 303.8 225.8 309.7 226.5 319.7L227.2 329.1L230.1 326.4C231.7 324.9 232.7 323.4 232.5 323.1C232.2 322.9 233.7 320.8 235.9 318.6C241 313.3 253.1 297.5 260 287.2C265.4 279.1 267.7 276.9 266.5 281.3C265.3 285.2 252.2 308.8 248.5 313.7C246.6 316.2 245.2 319 245.4 319.9C245.7 320.8 246.6 326.8 247.5 333.3C248.4 339.8 250.6 353.4 252.5 363.7C255.4 379.9 256.1 382.6 258.3 384.6C260.6 386.7 267.1 390 269.1 390C270.6 390 270.1 386.6 268 382.5C265.6 377.8 265.7 378 267.3 378C269.4 378 272.8 382.2 274.3 386.4L275.6 390.2L277.9 388.3L280.3 386.4L277.9 381.4C276.6 378.7 275.4 376.2 275.2 375.8C275 375.3 275.5 375 276.3 375C277.1 375 279.2 376.6 281 378.6C282.7 380.6 284.4 382 284.7 381.7C285.9 380.4 282.6 373.8 279.5 371.4C276.8 369.4 276 367.9 275.4 364.3C274.7 359.6 276.6 342.3 278 340.5C278.8 339.5 284.1 316.3 288.1 296C290 286.2 290.4 281.2 290.4 261.5C290.5 237.7 290.2 235 285.3 212.2C283.7 204.8 282.3 200.1 281.6 200.3C281 200.5 279.6 197.1 278.3 192.1C277.1 187.4 276.5 183.4 276.9 183.2C278 182.8 276 176 274.9 176C274.4 176 273.6 176.9 273 178C271.1 181.5 249 190.9 249 188.2C249 187.7 254.2 183.9 260.5 179.6C276.7 168.7 286.7 158.2 293.4 145.2C295.4 141.4 295.7 141.5 284.5 140C274.4 138.6 272 138 272 137C272 135.1 277.7 135.2 294.5 137.3C296 137.5 296.6 136.6 297.3 133.2C297.8 130.8 297.9 128.3 297.7 127.6C297.2 126.4 288.3 126.8 275 128.5C271.1 129 269.8 128.9 270.5 128.2C271.7 126.9 288.6 124 294.8 124H299V118.5C299 113 299 113 296.3 113.6C287 115.7 280.7 117.5 272.4 120.5C267.2 122.3 263 123.5 263 123.1C263 121.1 280.9 113.8 292.8 111C295.6 110.4 298 109.5 298 109.2C298 105.1 292.1 91.9999 286.1 82.4999C282.1 76.0999 282 74.3999 285.9 76.3999C292.4 79.7999 301.4 93.5999 304.1 104.4L305.3 109.2L308.9 108.6C317.9 107.1 331.6 106.9 336.5 108.3L341.5 109.6L327 110.3C319 110.6 311 111.2 309.3 111.6C306 112.2 306 112.3 306 118.1V124H309.3C317 124 340 128.4 338.8 129.6C338.6 129.8 333.5 129.3 327.4 128.5C321.4 127.7 314.2 127 311.3 127C305.6 127 306.3 126.1 304.5 135.9C303.9 138.6 304 138.7 310.2 140C319.4 141.9 331.2 145.7 333.5 147.5C335.4 149 335.3 149.1 332 148.7C330.1 148.5 323.2 147.1 316.8 145.6C303.4 142.6 302 142.5 302 144.3C302 147.2 292.4 161.7 286.6 167.5L280.3 173.7L284.7 187.1C296 222.1 300.3 252.3 298.1 280.5C296.1 304.6 293.5 318.2 284.6 348.9C282.2 357.4 280.4 364.9 280.6 365.4C280.8 366 282.7 367.4 284.8 368.5C292.2 372.5 292.9 384.5 286 391.5C283.3 394.2 282.3 394.5 275.4 394.8C265.3 395.4 259.9 393.7 255.7 389C251.4 384 247.5 377.3 247.4 374.7C247.3 373.5 246.9 370.7 246.6 368.5C243.1 348.1 241.7 335.8 241.7 326.6C241.7 322.3 242.2 318.5 242.7 318.1C243.2 317.8 245.8 314.4 248.4 310.5C251.6 305.8 252.1 304.8 249.8 307.5C248 309.6 242.8 315.7 238.3 320.9C232.8 327.1 230 331.1 230 332.7C230 334.1 229.6 334.9 229 334.5C227.8 333.8 228.8 342.1 230 343C230.3 343.3 230.7 345.2 230.7 347.3C230.8 349.3 231.6 355.8 232.5 361.8C233.9 370.2 234.7 372.9 236.5 374.5C240.5 378.1 246 386.9 246 389.8C246 395.4 241.2 399.1 229.8 402.4C223 404.3 223.7 404.3 217.5 402.2ZM66.5004 374.1C53.7004 370.8 40.0004 364.5 33.2004 358.7C29.1004 355.1 28.9004 355 31.5004 357.9C38.4004 365.6 55.0004 373.7 68.8004 376C78.2004 377.6 77.3004 376.8 66.5004 374.1ZM75.9004 368.9C74.2004 365.9 71.6004 359.8 70.1004 355.3C68.7004 350.7 67.1004 347 66.6004 347C66.1004 347 62.4004 345.4 58.3004 343.4C46.4004 337.5 37.0004 325.6 34.1004 312.9C30.9004 298.5 30.7004 294.7 32.5004 286.5C35.4004 273.4 39.4004 263.5 51.9004 238.1C65.9004 209.7 68.1004 202.7 68.1004 187.5C68.1004 162.2 56.6004 138.9 40.0004 130.5C33.0004 126.9 21.0004 125.8 18.1004 128.4C17.2004 129.3 16.1004 129.8 15.8004 129.5C14.7004 128.4 9.10041 136.1 8.40041 139.7C8.00041 141.8 8.20041 145.8 8.80041 148.6C10.0004 154.7 14.5004 162.4 16.2004 161.4C16.8004 161 17.0004 161.1 16.7004 161.8C15.8004 163.2 17.0004 166.1 18.1004 165.4C19.9004 164.4 34.9004 182.4 37.5004 188.7C40.8004 196.6 40.6004 216.3 37.2004 217.3C36.2004 217.5 34.7004 220 33.7004 223.1C32.7004 226.1 30.4004 231.6 28.7004 235.3C26.3004 240.6 25.9004 242.3 26.9004 243C27.9004 243.6 27.0004 246 23.3004 253.2C20.5004 258.4 17.8004 262.4 17.1004 262.2C16.5004 262 15.1004 263.8 14.1004 266.2C11.7004 271.8 10.7004 276 11.9004 276C12.4004 276 11.9004 279.1 10.9004 283C8.80041 291.2 8.70041 301.9 10.7004 314.5C12.1004 323.5 15.6004 333.4 17.0004 332.5C17.9004 331.9 19.3004 335 18.5004 335.8C18.2004 336.1 18.0004 335.7 18.0004 335C18.0004 334.3 17.7004 333.9 17.4004 334.3C15.6004 336.1 27.1004 349.9 36.8004 357.7C42.7004 362.4 56.1004 368.9 60.8004 369.5C61.7004 369.6 63.4004 370 64.5004 370.5C67.1004 371.7 78.4004 374.8 78.8004 374.5C79.0004 374.4 77.7004 371.8 75.9004 368.9ZM8.80041 317C7.40041 311.8 6.80041 305.9 6.70041 297.5L6.60041 285.5L5.60041 292.5C4.60041 300.1 5.70041 310.5 8.50041 319.8C10.9004 327.7 11.1004 325.7 8.80041 317Z" fill="#5D3C3A"/>
<path d="M13.6002 283.3C14.0002 281.2 14.7002 278.8 15.2002 278C15.8002 277 16.0002 277.6 15.6002 279.9C15.3002 281.7 15.0002 284.1 15.0002 285.1C15.0002 286.2 14.5002 287 14.0002 287C13.3002 287 13.2002 285.6 13.6002 283.3Z" fill="#5D3C3A"/>
<path d="M208.5 157.1C202.8 155.7 199 151.9 199 147.5C199 145.3 201.8 145.7 202.5 148C203.3 150.4 207.9 153 211.3 153C216.1 153 223.2 146.5 224.5 140.8C225.1 138.5 224.8 138.1 221.8 137.5C217.1 136.5 211 132.3 211 130.1C211 125.5 231.5 120.6 233.8 124.7C235 126.8 233.7 131.7 231.1 134.4C229.8 135.8 229.2 137.8 229.3 140.2C229.4 143.4 229.9 144.2 232.6 145.5C240.4 149.2 245.7 146.7 249 137.8C250.2 134.3 251.8 134.2 252.6 137.5C253.5 141.3 250.9 147.2 247.1 149.7C242.6 152.7 235.1 152.8 230.4 149.9L227.1 147.9L223.5 151.8C221.6 154 218.7 156.1 217.2 156.4C215.7 156.8 213.8 157.2 213 157.4C212.2 157.6 210.2 157.5 208.5 157.1ZM223 128C224.3 127.1 224.3 127 223 127.1C222.2 127.1 220.6 127.5 219.5 128L217.5 128.9H219.5C220.6 128.9 222.2 128.5 223 128Z" fill="#5D3C3A"/>
<path d="M179.1 123.5C176.4 119.9 175.6 115.7 177 111.4C180.1 102.2 190 107.6 190 118.4C190 125.3 183.1 128.5 179.1 123.5Z" fill="#5D3C3A"/>
<path d="M246.101 111.399C242.801 107.199 243.601 98.2993 247.401 95.7993C249.501 94.2993 252.901 94.9993 254.401 97.1993C255.401 98.4993 256.001 101.499 256.001 104.499C256.001 113.299 250.601 117.099 246.101 111.399Z" fill="#5D3C3A"/>
<path d="M286.3 74.6998C285.7 74.0998 284.001 67.3998 282.501 59.9998C277.501 35.4998 271.001 14.1998 269.001 15.4998C268.401 15.7998 268.301 15.3998 268.601 14.5998C270.101 10.6998 266.501 13.8998 257.101 24.6998C251.501 31.1998 243.901 40.8998 240.301 46.2998C235.801 53.1998 233.301 55.9998 232.201 55.7998C230.401 55.3998 230.101 53.0998 231.401 49.0998C232.001 47.3998 231.901 46.9998 231.001 47.4998C227.801 49.4998 242.501 29.0998 251.301 19.3998C260.601 9.19975 271.401 2.99975 269.501 8.99975C269.101 10.1998 269.5 10.8998 270.8 11.1998C275.1 12.3998 284.501 36.4998 287.401 53.8998C289.901 68.6998 289.3 78.6998 286.3 74.6998Z" fill="#5D3C3A"/>
<path d="M139.8 73.2C133.3 72.9 131.2 71.9 134.6 70.6C135.5 70.3 137.3 70 138.6 70C141.6 70 141.6 69.7 138.2 65.2C136.6 63.2 132.2 57.2 128.3 52C124.4 46.8 119.8 41.2 118.1 39.6C115 36.6 114.2 35 115.9 35C119.8 35 148.2 69.6 146.8 72.7C146.7 73.1 143.5 73.4 139.8 73.2Z" fill="#5D3C3A"/>
<path d="M259.5 59.3001C256.1 57.5001 251.5 57.3001 249.4 59.1001C245.5 62.3001 249.8 47.6001 255.9 36.9001C259.5 30.5001 263.9 25.0001 264 26.8001C264 27.5001 261.9 32.1001 259.4 37.1001C256.9 42.1001 255.1 46.5001 255.4 46.8001C255.8 47.1001 255.4 48.0001 254.6 48.9001C253 50.8001 251.6 55.0001 252.6 55.0001C252.9 55.0001 255.1 53.3001 257.3 51.3001C261.7 47.4001 263.9 48.3001 260 52.5001L257.8 54.9001L261.5 56.4001C263.5 57.3001 265 58.5001 264.8 59.2001C264.2 61.0001 262.8 61.1001 259.5 59.3001Z" fill="#5D3C3A"/>
</svg>
