<svg xmlns="http://www.w3.org/2000/svg" viewBox="0 0 1134 825" role="img" aria-label="Human Grade"><g fill="#2E2622"><path d="M264 121.063C248.933 122.397 226.133 124.397 213.333 125.597C182.133 128.397 116.933 133.863 102 134.93C95.4667 135.33 87.2 135.997 83.7333 136.397L77.3333 137.197V129.197C77.3333 116.13 72.5333 117.063 71.7333 130.263L71.3333 137.597L66.4 137.997C62.1333 138.397 61.3333 137.997 61.3333 135.73C61.3333 134.263 60.6667 131.463 60 129.463C58.6667 126.13 58.4 125.997 56.5333 127.863C55.4667 128.93 54 133.197 53.4667 137.463C52.9333 141.597 52.1333 145.33 51.6 145.73C51.2 146.13 43.7333 147.063 35.0667 147.73C26.4 148.397 16.6667 149.863 13.3333 150.797C10 151.863 5.73333 153.063 3.73333 153.463C1.6 153.997 0 155.197 0 156.263C0 157.73 1.73333 158.263 7.06667 158.397C10.8 158.53 22.2667 158.93 32.2667 159.463L50.5333 160.263L51.2 266.263C51.6 324.53 52.2667 386.397 52.6667 403.597C53.2 422.93 52.9333 434.13 52.2667 432.93C50.1333 429.597 47.3333 376.397 44.5333 288.93C43.4667 253.33 42.1333 221.597 41.6 218.263C40.5333 211.063 36.6667 209.197 35.2 215.063C34 219.863 35.4667 354.263 37.3333 402.93C40.8 498.93 43.7333 549.463 52 655.597C54.9333 692.663 57.8667 736.663 58.6667 753.597C59.4667 770.397 60.2667 785.863 60.6667 787.73C61.4667 792.53 59.2 794.263 52.1333 794.263C48.6667 794.263 41.8667 795.197 36.8 796.263C28 798.13 24 799.997 24 802.397C24 803.063 32.6667 803.597 43.2 803.597H62.2667L63.2 812.797C64.8 828.397 70.1333 828.53 70.9333 812.93C71.3333 805.463 71.7333 804.263 73.8667 804.263C75.2 804.263 76.8 805.197 77.3333 806.263C82.6667 817.863 84.4 818.797 85.0667 810.663C85.3333 807.863 86 805.197 86.4 804.663C86.9333 804.13 103.6 802.53 123.333 800.93C143.2 799.463 167.867 797.597 178.4 796.797C195.6 795.33 200.533 795.597 198.4 797.597C197.467 798.53 187.2 800.13 154.667 804.397C139.6 806.397 126 808.397 124.4 809.063C120.933 810.397 120.267 815.197 123.2 816.397C124.267 816.797 136.4 815.863 150.267 814.263C185.2 810.263 189.733 809.73 277.333 801.463C344.8 794.93 360.533 793.863 394 793.33C430.933 792.663 524.667 794.263 602.667 796.93C660.133 798.93 674.533 798.93 676.133 797.33C678.533 794.93 676.133 790.53 671.6 789.063C664.933 786.93 620.267 785.063 548.8 784.13C512.933 783.597 484.667 782.663 486.133 782.13C494.267 779.197 551.067 777.997 640.4 778.797L733.6 779.73L733.067 776.797C732.533 772.397 729.067 771.863 684.667 770.13C612.4 767.197 630.267 765.197 788.667 758.263C821.333 756.797 823.467 756.53 825.467 753.863C827.467 751.33 829.6 751.063 851.333 750.13C878.4 748.93 880.267 748.53 879.733 744.53C879.333 741.997 878.267 741.463 871.733 740.93C867.6 740.53 863.733 739.73 863.2 739.197C860.667 736.797 867.067 735.597 883.733 735.597C893.333 735.597 901.733 735.463 902.4 735.197C902.933 735.063 903.467 737.063 903.733 739.597C904.133 744.797 906.533 751.597 907.867 751.597C910.533 751.597 912 747.597 912 740.663C912 733.197 912.133 732.93 915.467 732.93C921.067 732.93 930.8 729.997 931.6 727.997C933.067 724.263 929.333 722.263 920.667 722.263H912.4L911.6 701.997C910.4 674.663 910.4 664.93 911.867 664.93C912.533 664.93 913.467 669.863 913.867 675.863C915.2 691.33 915.867 694.13 918.933 695.73C925.467 699.197 925.467 697.997 922.933 619.597C922 592.13 920.667 533.73 920.133 489.863C919.067 411.33 918.533 404.397 914.8 408.397C914.133 409.063 913.067 436.263 912.533 468.93C912 501.597 911.067 525.863 910.533 522.93C908.8 513.33 905.333 453.063 904.4 416.53C904 396.93 903.067 380.53 902.4 380.13C901.867 379.73 900.133 379.863 898.667 380.263C896.4 380.93 896 382.263 896 389.063V397.063L892 394.93C888 392.93 888 392.93 888 396.53C888 398.663 889.333 417.997 890.933 439.597C893.6 475.463 893.867 487.063 893.6 570.53C893.467 630.397 893.733 662.397 894.667 662.93C895.467 663.463 896.133 661.063 896.133 656.663C896.4 646.13 899.6 677.33 900.8 702.397L901.733 723.33L889.2 724.263C882.267 724.797 874.533 724.93 872 724.663L867.333 724.13L872.4 721.597C875.467 719.997 877.2 718.263 877.067 716.93C876.4 714.13 860.533 714.663 831.333 718.53C809.333 721.463 806 721.597 708.667 721.33C653.733 721.197 595.067 720.663 578.533 720.13C551.467 719.463 548.267 719.597 547.6 721.463C546.933 723.063 547.733 723.997 550 724.93C555.467 727.063 593.333 728.797 654 729.863C705.6 730.663 711.733 730.93 705.333 732.397C701.333 733.33 691.067 734.797 682.667 735.597C674.267 736.263 660.8 737.597 652.667 738.263C634.133 739.997 575.467 744.263 534.667 746.93C499.333 749.197 478.8 750.797 446 753.597C433.6 754.797 408.667 756.797 390.667 758.263C348.133 761.863 349.6 761.463 349.067 765.997C348.667 769.597 348.667 769.597 334.667 770.53C326.933 771.063 282.267 772.13 235.333 772.93C188.4 773.73 138.267 774.663 123.867 775.197L97.7333 775.997L96.9333 735.463C96.1333 694.397 94.4 669.463 91.8667 657.863C90.6667 652.93 89.8667 651.597 87.7333 651.597C85.8667 651.597 85.3333 652.263 85.8667 653.73C87.4667 657.863 89.6 755.863 88.1333 757.33C86 759.463 85.6 756.663 84.8 731.597C84.1333 705.73 82.2667 669.063 79.3333 619.597C78.2667 601.597 76.6667 571.33 76 552.263C75.2 533.197 73.7333 501.997 72.6667 482.93C71.6 463.863 70.4 435.597 70 420.263C69.6 404.797 69.0667 384.53 68.6667 375.197C68 357.33 69.0667 339.197 70.6667 340.263C71.2 340.53 72 350.263 72.5333 361.863C74.8 414.93 83.2 483.33 88 488.13C92.1333 492.263 92.1333 485.863 87.4667 434.797C79.0667 342.663 77.3333 307.997 77.3333 231.063V162.263H85.7333C90.2667 162.263 110.267 162.93 130 163.863C181.467 166.13 226.133 164.263 340.667 154.93C396.533 150.397 466.533 145.33 498.667 143.463C530.933 141.597 661.6 141.33 671.333 143.197L678 144.53L669.333 145.33C664.533 145.73 636.933 146.797 608 147.597C551.467 149.197 542.533 149.863 541.6 152.797C541.067 154.397 542.667 154.53 550.8 153.73C556.267 153.33 583.467 152.263 611.333 151.597C693.2 149.463 766.267 145.73 768.533 143.597C769.067 143.063 768.4 141.863 767.067 141.063C763.867 139.463 722.667 134.663 700.533 133.33C691.867 132.93 686 132.13 687.467 131.597C688.8 131.063 705.333 130.263 724 129.73C774.533 128.263 781.733 127.197 779.6 121.73C778.8 119.863 772.133 119.597 720.4 119.597C688.267 119.597 650.667 120.263 636.667 120.93C542.133 125.73 462.133 128.797 413.333 129.463C356.267 130.263 281.6 131.997 230.4 133.73C210 134.397 202.667 134.263 202.667 133.063C202.667 132.13 205.333 131.597 209.867 131.597C217.467 131.597 281.867 125.863 298.667 123.597C304.133 122.93 309.467 122.263 310.4 122.263C311.2 122.263 312 121.33 312 120.263C312 117.597 300.4 117.863 264 121.063ZM66.4 143.73C66.9333 146.263 62.8 148.263 60.9333 146.397C60.2667 145.73 58.8 145.463 57.8667 145.863C56.8 146.263 56 145.863 56 144.93C56 144.13 56.6667 143.863 57.3333 144.263C58.1333 144.663 59.0667 144.13 59.4667 142.93C60.5333 140.263 65.8667 140.797 66.4 143.73ZM363.867 141.463C363.2 142.13 325.6 145.597 298.667 147.597C257.333 150.397 204.133 152.797 161.467 153.597C122.533 154.397 117.067 154.263 118.4 152.53C119.467 151.197 124.267 150.397 133.733 149.73C150.933 148.663 222.933 145.463 275.333 143.597C297.333 142.797 317.733 141.997 320.667 141.73C330 141.063 364.533 140.93 363.867 141.463ZM68.6667 167.33C68.2667 170.93 67.3333 186.263 66.8 201.33C65.8667 227.063 65.2 231.997 63.2 229.863C62.1333 228.93 60.9333 165.197 61.8667 162.663C62.2667 161.73 64.1333 160.93 66.1333 160.93C69.4667 160.93 69.6 161.063 68.6667 167.33ZM924.4 725.863C923.467 726.13 921.867 726.13 921.067 725.863C920.133 725.463 920.8 725.197 922.667 725.197C924.533 725.197 925.2 725.463 924.4 725.863ZM835.467 737.33C838.533 740.397 827.067 741.73 814.8 739.597C800.267 737.197 802.933 735.197 819.867 735.863C827.867 736.13 834.933 736.797 835.467 737.33ZM731.333 742.263C725.467 743.73 715.867 743.73 719.333 742.263C720.8 741.597 725.067 741.197 728.667 741.197C734.4 741.197 734.8 741.33 731.333 742.263ZM635.333 753.73C614.8 756.797 550 762.263 520 763.597C475.867 765.463 430.933 766.13 435.333 764.93C438.4 764.13 438.667 763.863 436.667 763.597C435.2 763.33 441.2 762.797 450 762.263C458.8 761.73 485.467 759.997 509.333 758.397C592.533 752.797 608.8 751.997 628 751.997H647.333L635.333 753.73ZM684.4 759.197C682.667 759.463 679.733 759.463 677.733 759.197C675.6 758.93 677.067 758.663 680.667 758.663C684.4 758.663 686 758.93 684.4 759.197ZM74.1333 769.863C72.8 773.33 70.9333 769.73 71.7333 765.197C72.4 761.73 72.4 761.73 73.7333 764.53C74.4 766.13 74.5333 768.53 74.1333 769.863ZM86.9333 767.73C86.4 770.93 86 771.463 85.2 769.863C84.5333 768.797 84.4 766.93 84.8 765.73C86.2667 762.13 87.6 763.463 86.9333 767.73ZM168 784.797C164.933 786.53 156.133 787.463 127.467 788.93C100.4 790.397 96.5333 789.863 98.2667 785.463C98.8 783.863 104.933 783.597 134.533 783.597C154.533 783.597 169.067 784.13 168 784.797ZM74.1333 791.063C73.4667 792.797 72.8 792.93 71.7333 791.863C70.9333 791.063 70.6667 789.463 71.2 788.13C71.8667 786.397 72.5333 786.263 73.6 787.33C74.4 788.13 74.6667 789.73 74.1333 791.063Z"/><path d="M242.667 193.996C238.933 195.729 237.6 197.596 235.867 202.929C232.8 212.263 230.8 236.929 229.867 281.196L228.933 319.329L220.133 320.263C215.333 320.663 200.533 322.263 187.333 323.596C174.133 324.929 158.4 326.529 152.4 327.063L141.333 327.996V287.463C141.2 236.663 139.6 206.663 136.533 200.263C133.2 193.063 125.733 192.129 121.2 198.263C118.933 201.196 118.667 205.863 117.733 240.263C116 301.863 116.667 468.263 118.533 476.929C121.067 488.796 128.4 493.729 134.133 487.463C137.2 484.129 137.867 471.729 139.467 401.329L140.4 354.529L160.533 353.863C171.6 353.596 191.333 352.263 204.533 350.929C222.8 349.063 228.533 348.929 229.333 350.129C229.867 351.063 230 378.396 229.6 410.796C229.2 443.329 229.333 472.129 229.867 474.929C231.733 484.529 241.733 489.729 247.2 483.729C250.133 480.529 252.667 456.263 257.333 386.929C262.533 308.929 262.533 207.996 257.2 198.129C253.6 191.329 250 190.263 242.667 193.996ZM229.733 333.596C229.333 335.329 222.667 336.263 222.667 334.529C222.667 332.529 224.4 331.463 227.333 331.863C228.8 332.129 229.867 332.796 229.733 333.596Z"/><path d="M292.267 339.064C286.667 341.464 282.267 364.264 282.4 391.597C282.4 432.13 292.8 459.33 311.333 468.13C325.6 474.93 346 466.264 354.8 449.597C356.533 446.264 358.267 443.597 358.667 443.597C359.067 443.597 360.133 446.13 361.067 449.197C364.8 460.93 374.533 468.93 385.2 468.93C394.8 468.93 402.667 464.13 409.733 453.864C414.133 447.464 414.533 440.797 410.667 436.93C406.133 432.397 402.133 433.464 396.533 440.53C386.933 452.664 383.867 453.33 379.6 443.864C377.067 438.264 376.667 435.33 376.667 416.264C376.667 402.93 377.6 387.597 379.2 375.464C381.733 356.13 381.733 355.864 379.2 351.464C377.2 347.997 375.467 346.797 372.133 346.53C363.6 345.73 360.8 351.064 358 373.33C354.533 402.264 350 419.33 342 433.597C333.067 449.597 326.133 454.397 317.6 450.93C307.733 446.664 301.333 422.797 301.333 390.264C301.333 379.33 302.267 365.464 303.333 358.264C305.333 346.264 305.333 345.597 302.933 342.264C300.533 339.064 295.867 337.597 292.267 339.064Z"/><path d="M440.666 342.264C439.333 343.73 437.733 347.73 437.2 351.33C435.866 359.464 435.866 395.597 437.2 429.997C438.133 453.997 438.533 457.464 440.933 460.664C442.8 463.197 445.066 464.397 448.4 464.664C456 465.33 456.933 462.797 458.533 433.997C460.8 395.73 464.133 380.664 472.8 369.197C479.733 360.264 486.666 366.13 491.466 384.93C492.933 390.797 493.866 402.664 494.4 424.264C495.2 452.264 495.6 455.597 497.866 458.13C500.8 461.33 507.6 461.864 511.2 459.197C514.133 457.064 515.866 448.264 515.866 434.264C516.133 412.13 520 390.397 526.133 378.264C529.733 370.797 532.933 367.864 538.4 366.797C542.133 365.997 543.333 366.53 547.066 370.664C555.333 379.33 558.4 394.264 559.733 431.997L560.666 458.53L564.4 461.73C568.933 465.597 572 465.73 576 462.53C580 459.33 580.8 447.33 578.8 420.93C576.266 387.597 570.266 367.73 559.6 357.197C544 341.997 525.2 345.33 512.4 365.597C510.4 368.93 508.266 371.597 507.733 371.597C507.333 371.597 506.133 369.597 505.333 367.064C501.6 355.464 488.8 344.93 478.666 344.93C472.133 344.93 463.733 349.464 458.8 355.597C456.4 358.53 454.133 360.93 453.466 360.93C452.933 360.93 452.4 357.197 452.266 352.53C452.133 345.864 451.466 343.864 449.2 341.864C445.6 338.93 443.6 338.93 440.666 342.264Z"/><path d="M790.667 343.864C783.2 346.264 768.133 362.531 762.667 373.864C760.133 379.197 757.6 383.597 757.2 383.597C756.667 383.597 756.133 377.731 755.733 370.531C755.333 363.464 754.4 356.264 753.467 354.531C751.467 350.797 746.533 350.664 743.2 354.397C740.8 357.064 740.667 359.731 740.8 402.797C740.933 452.931 741.467 457.331 748.4 460.664C753.2 462.931 758.8 461.197 760.933 456.797C761.733 455.064 763.067 447.597 764 440.264C765.867 423.197 772.533 395.997 777.467 385.197C783.733 371.064 794.133 360.931 802 360.931C809.733 360.931 815.2 369.197 820.8 389.197C824 400.397 824.4 404.664 825.2 433.331C826 464.931 826 465.197 829.2 467.731C833.733 471.464 839.733 470.531 843.2 465.864C845.867 462.264 846 460.531 845.733 437.197C845.6 417.597 844.933 409.464 842.8 398.931C836.8 370.664 829.333 354.397 818.8 346.931C814.133 343.597 811.733 342.931 804.267 342.664C799.333 342.531 793.2 343.064 790.667 343.864Z"/><path d="M678.4 356.53C677.2 357.864 675.6 360.264 674.8 361.997L673.2 365.064L668.533 361.064C662.933 356.13 659.333 355.064 650.267 355.864C640.8 356.664 633.867 360.264 626 368.264C610.933 383.597 602 409.464 605.333 427.997C607.067 436.797 610.667 445.197 615.2 449.997C622.4 457.997 635.6 460.53 646 455.73C651.6 453.197 665.867 438.93 667.333 434.264C668.667 429.864 670.267 431.197 671.333 437.597C673.467 452.13 682.533 462.264 693.333 462.264C704.8 462.264 715.2 449.464 720.8 428.53C724.667 413.73 722 403.33 714.667 405.597C710.8 406.797 708.533 410.664 704 424.264C701.867 430.797 699.067 437.464 698 439.197C695.2 443.464 691.333 443.064 689.333 438.264C686.933 432.53 687.333 399.33 690 378.53C692.133 362.264 692.133 360.664 690.133 357.597C687.467 353.597 681.467 353.064 678.4 356.53ZM663.733 375.73C670.667 378.664 670.8 380.13 665.467 395.997C657.867 418.397 644.533 438.397 635.733 440.397C630.267 441.597 624.533 435.33 623.2 426.93C620.933 411.197 629.2 387.064 640.133 377.73C648 371.064 652.133 370.797 663.733 375.73Z"/><path d="M667.6 509.997C665.6 512.131 665.333 516.797 665.067 546.664C664.8 566.797 664.133 580.931 663.467 580.931C662.8 580.931 659.467 579.597 656.133 577.864C646.933 573.464 632.533 573.731 622.533 578.531C609.2 585.064 597.867 599.064 593.067 614.664C585.467 639.864 596.267 667.064 618.4 677.864C624.4 680.797 627.467 681.464 636.133 681.464C645.6 681.464 647.6 680.931 656.133 676.531L665.733 671.597L669.6 674.931C674.533 679.197 678.667 679.197 682.667 674.931L685.733 671.731L684.933 603.997C684.133 532.931 683.067 517.197 678.933 511.597C675.733 507.464 670.667 506.664 667.6 509.997ZM652.8 597.731C656.133 599.997 656.133 600.264 655.867 614.131C655.6 621.864 656 632.397 656.667 637.331C658 648.264 656.667 651.331 648.133 656.931C637.067 664.397 623.867 660.531 616.4 647.864C613.2 642.397 612.667 640.264 612.667 630.931C612.667 619.064 614.933 613.197 622.933 604.131C631.333 594.664 643.867 591.997 652.8 597.731Z"/><path d="M190.666 511.597C163.466 517.33 137.6 549.997 128 590.797C120.666 621.73 122.933 658.93 134.133 692.13C140.8 711.464 156 730.797 170 737.597C189.6 747.197 207.333 743.464 226 726.13C251.466 702.264 267.6 657.197 256.266 641.33C250.666 633.464 246 632.264 220 632.264C195.6 632.264 189.2 633.464 186.666 638.397C184.4 642.53 185.2 647.064 188.8 650.397C192.133 653.464 192.933 653.597 215.6 653.997L238.933 654.397L238 659.864C236.4 668.797 228.666 686.93 222 696.93C211.733 712.397 196.533 722.264 186.133 720.397C171.066 717.597 157.066 696.264 149.066 664.264C145.066 648.264 144.666 613.464 148.4 598.664C153.6 576.797 162.133 559.464 173.6 546.93C189.333 529.73 211.866 526.53 224.8 539.864L230 545.064V560.797C230 574.664 230.266 577.064 232.533 579.464C236.4 583.73 242.4 582.797 246.133 577.197C249.6 572.13 251.466 558.93 250.266 548.53C248.4 533.464 237.466 519.73 223.066 514.264C214.533 511.064 199.2 509.864 190.666 511.597Z"/><path d="M765.733 544.13C750.8 549.063 738 561.063 729.333 578.663C722.933 591.73 720 604.263 720 619.596C720 639.463 725.6 654.263 738 666.93C746 675.063 755.733 680.13 769.333 683.063C783.2 686.13 794.666 684.13 810.8 675.996C829.733 666.53 852 643.73 852 633.73C852 630.263 845.866 624.93 842 624.93C839.333 624.93 834.933 628.396 824.266 638.663C800.533 661.33 784.4 667.196 765.066 659.73C760 657.863 751.066 649.463 747.333 643.063C744.266 637.596 740.133 621.73 741.466 620.263C741.866 619.863 744.8 620.53 748 621.596C765.333 627.73 799.066 620.53 813.866 607.596C831.2 592.263 821.066 556.93 796.133 545.863C788.4 542.53 773.466 541.596 765.733 544.13ZM788.933 565.063C796.133 568.53 801.333 575.196 802.266 581.996C803.333 589.596 801.2 592.263 790.133 597.596C782.4 601.33 776.666 602.796 762.133 605.063C752 606.53 743.466 607.596 743.066 607.196C742.133 606.13 746.4 591.996 749.6 585.863C753.6 577.996 762.133 569.463 769.733 565.596C778 561.596 781.466 561.463 788.933 565.063Z"/><path d="M482.666 563.73C455.466 569.196 437.333 595.73 437.333 629.596C437.333 650.663 443.2 665.196 456.8 678.263C467.6 688.663 475.066 692.13 487.333 692.13C494.933 692.263 498 691.596 504.266 688.53C511.866 684.796 522.4 674.663 525.6 667.863C528.133 662.93 529.6 663.063 533.6 668.93C538.133 675.596 546 679.596 554.133 679.596C559.733 679.596 560.933 678.93 566.133 673.73C570.933 668.93 572 667.063 572 663.063C572 652.93 566.8 650.13 557.866 655.73L553.333 658.396L550.133 655.196C545.466 650.53 544.666 642.663 546.266 612.263C548 581.73 547.2 573.063 542.666 568.263C537.6 562.796 531.066 564.263 528 571.596C526 576.53 524.8 576.53 519.066 572.13C509.066 564.53 494.8 561.196 482.666 563.73ZM505.333 586.796C508.666 588.396 512.666 591.863 514.4 594.396C517.466 598.796 517.466 599.73 517.066 618.93C516.666 635.863 516 640.13 513.466 646.663C505.866 665.996 490.933 675.863 478.8 669.73C473.466 666.93 466.8 658.93 462.8 650.263C459.733 643.73 459.333 641.33 459.333 628.263C459.333 614.93 459.733 612.796 463.066 605.596C465.066 601.196 468.666 595.596 471.066 593.063C480.133 583.463 494 580.93 505.333 586.796Z"/><path d="M330.8 595.73C323.333 597.196 314.267 602.53 310.667 607.596C306.8 612.93 305.333 612.663 305.333 606.53C305.333 595.73 296.267 591.863 290.133 599.996C287.467 603.596 287.333 605.596 286.933 639.596C286.4 682.13 288 707.196 291.6 713.33C294.8 718.796 302.133 719.996 306 715.73C308.133 713.196 308.4 710.13 308.533 684.663C308.8 657.863 308.933 655.73 312.267 645.863C316.133 634.396 324.533 622.13 330.667 618.93C332.8 617.863 336.8 616.93 339.467 616.93C344.533 616.93 346.4 618.53 358.133 632.13C363.067 637.73 368.933 638.663 373.333 634.263C378.933 628.663 375.467 619.063 363.333 606.663C356.933 600.263 353.6 597.996 348 596.396C340.133 593.996 339.333 593.996 330.8 595.73Z"/></g><g fill="#BE6341"><path d="M912.133 1.59623C896.4 5.99623 881.733 17.5962 874 31.5962C870.266 38.3962 870 39.8629 870 52.9296C870 69.5962 871.6 73.8629 886.666 96.2629C902.4 119.863 903.333 122.13 903.6 144.93C904 167.463 905.333 173.596 911.6 180.796C921.2 192.13 946.8 204.796 965.733 207.596C985.066 210.53 998.533 206.13 1016.4 191.33C1028.8 180.93 1037.87 174.663 1046.53 170.263C1054.13 166.53 1056.93 165.863 1072.4 164.796C1097.6 163.063 1106.53 159.996 1118.93 149.063C1131.33 137.996 1136.8 117.863 1130.93 104.663C1125.47 92.2629 1112 80.9296 1096 75.5962C1088.93 73.1962 1084.67 72.7962 1067.47 72.7962C1043.73 72.9296 1036.67 71.4629 1020.8 63.3296C1012.13 58.7962 1007.73 55.1962 998 45.0629C971.466 17.0629 964.666 10.9296 954.266 5.72956C945.066 1.0629 943.066 0.529563 931.733 0.129563C923.333 -0.270437 916.933 0.262896 912.133 1.59623ZM900.266 21.9962C890.933 31.3296 886.4 41.3296 885.6 54.3962C885.2 60.2629 884.533 64.9296 884 64.9296C879.2 64.9296 878.266 48.5296 882.533 38.7962C884 35.4629 887.066 30.3962 889.333 27.5962C893.2 22.6629 905.2 13.7296 906.4 14.7962C906.666 15.1962 904 18.3962 900.266 21.9962ZM1120 105.596C1122.67 109.863 1123.73 120.93 1121.6 120.93C1120.93 120.93 1119.73 117.73 1118.8 113.863C1118 110.13 1116.4 105.33 1115.47 103.33C1112.67 97.9962 1116.4 99.8629 1120 105.596ZM909.866 109.063C913.733 116.53 914 117.463 912 116.263C910 115.063 903.733 102.263 905.066 102.263C905.733 102.263 907.866 105.33 909.866 109.063ZM919.066 167.063C921.2 171.196 922.533 174.93 922.133 175.33C920 177.33 913.333 166.796 913.333 161.596C913.333 157.596 915.466 159.73 919.066 167.063ZM999.2 189.063C997.866 191.196 985.2 196.93 981.6 196.93C976 196.93 979.2 193.863 988.133 190.796C997.866 187.33 1000.53 186.93 999.2 189.063Z"/><path d="M818.666 138.262C801.2 141.862 777.6 159.062 766.4 176.129C753.2 196.529 752.666 220.129 765.2 230.662C789.733 251.196 848.8 219.062 855.733 181.196C857.866 169.329 855.466 161.596 847.333 154.396C843.333 150.929 841.466 150.262 836.266 150.396C832.8 150.396 828.8 150.929 827.333 151.596L824.666 152.662L827.333 153.596C833.066 155.596 836 157.462 838 160.396C839.866 163.329 839.733 163.329 831.6 159.596C827.066 157.329 822.266 155.596 821.066 155.596C816.533 155.596 803.866 161.196 794 167.596C788.533 171.196 784 173.462 784 172.662C784 169.996 795.6 160.262 803.866 155.729C813.466 150.662 830.666 145.996 838 146.529C842.533 146.929 843.333 146.529 843.333 144.262C843.333 139.062 830.266 135.996 818.666 138.262ZM843.333 186.129C843.733 186.796 843.466 187.729 842.666 188.262C842 188.662 841.333 188.129 841.333 187.062C841.333 184.662 842.133 184.262 843.333 186.129ZM775.2 220.262C780.266 222.396 781.2 225.996 776.533 225.196C773.733 224.662 769.333 221.196 769.333 219.329C769.333 217.862 769.6 217.862 775.2 220.262Z"/><path d="M1051.2 187.463C1048.13 188.797 1045.73 191.597 1047.6 191.597C1051.33 191.73 1067.33 195.73 1068.8 197.063C1072.13 199.863 1070.8 200.663 1064.4 199.463C1048.27 196.397 1034.27 208.797 1026.13 233.063C1016.93 260.797 1022.27 287.863 1039.2 299.197C1044.93 303.063 1046.67 303.597 1054.67 303.597C1068.53 303.597 1078.27 297.73 1088 283.597C1094.27 274.263 1098.4 263.33 1100 251.063C1104.27 220.93 1084.8 190.397 1059.33 187.063C1056.4 186.663 1052.67 186.797 1051.2 187.463ZM1042.93 225.863C1037.6 238.13 1034.93 247.463 1033.73 258.13C1032.93 265.997 1032.8 266.53 1031.73 262.93C1028.93 253.063 1035.6 226.397 1042.93 218.663C1044.53 216.93 1046 215.863 1046.27 216.13C1046.67 216.397 1045.07 220.797 1042.93 225.863ZM1090.13 249.463C1089.6 253.197 1087.47 259.997 1085.33 264.263C1083.2 268.663 1081.6 271.063 1081.73 269.597C1081.87 268.13 1082.4 266.263 1082.93 265.597C1083.33 264.797 1085.2 258.263 1086.8 251.063C1090 237.597 1091.6 236.797 1090.13 249.463ZM1047.2 286.93C1050.8 288.797 1054.93 290.263 1056.27 290.263C1059.33 290.263 1059.47 292.93 1056.4 293.063C1049.73 293.463 1043.73 290.797 1041.2 286.13C1039.6 282.93 1039.33 282.93 1047.2 286.93Z"/><path d="M880 204.796C867.066 209.063 850.666 221.196 840.933 233.863C824.533 255.196 816.8 285.463 824 299.596C833.6 318.396 860.533 318.396 886 299.596C899.333 289.73 906.8 280.93 913.733 266.93C924.266 245.596 923.333 228.396 910.933 215.196C902.8 206.53 888.8 201.863 880 204.796ZM896 215.863C904.4 220.13 910.666 229.73 910.666 238.13C910.666 246.663 905.2 262.663 903.066 260.396C902.8 260.13 903.466 253.863 904.8 246.53C906.8 233.996 906.8 233.063 904.666 228.396C900.266 219.063 889.333 217.063 875.333 223.063C864.266 227.73 862 228.396 863.333 226.396C864.666 224.13 877.066 216.396 882 214.53C887.866 212.53 889.466 212.663 896 215.863ZM840 292.263C842.933 295.73 848.8 298.263 854.266 298.263C857.066 298.263 860.133 298.796 861.066 299.33C863.733 301.063 856.933 303.596 849.866 303.596C838.133 303.596 832 297.063 832 284.396C832 273.996 833.6 273.063 836 281.996C837.2 286.53 839.066 291.196 840 292.263Z"/><path d="M957.733 239.73C951.733 241.463 941.467 252.13 936.4 261.73C925.2 282.796 923.6 314.13 932.533 333.196C935.333 339.196 942.667 346.796 948.4 349.863C955.467 353.73 968.533 352.93 977.2 348.263C995.733 338.13 1009.2 310.93 1007.73 286.396C1005.73 255.196 981.733 232.796 957.733 239.73ZM968 249.196C968 250.13 966.133 252.13 963.867 253.596C956.8 258.13 948.533 270.53 944.667 282.53C940.533 295.196 938.667 297.996 938.667 291.996C938.667 279.196 950.4 256.93 960.4 250.93C966.8 247.196 968 246.93 968 249.196ZM995.467 306.663C993.333 313.463 990 319.33 988.8 318.13C988.133 317.463 994.133 297.596 995.733 295.063C997.6 292.13 997.467 299.863 995.467 306.663ZM961.067 339.196C964.933 339.73 966.267 340.396 965.067 341.063C961.067 343.73 950.667 341.196 950.667 337.596C950.667 337.063 951.733 337.063 953.067 337.596C954.267 338.13 958 338.93 961.067 339.196Z"/></g></svg>