<svg xmlns="http://www.w3.org/2000/svg" viewBox="0 0 200 200" role="img" aria-label="Коробка на 7 дней по подписке"><path d="M100.0 8.0 L111.0 16.7 L123.8 11.1 L132.1 22.4 L146.0 20.3 L151.1 33.4 L165.1 34.9 L166.6 48.9 L179.7 54.0 L177.6 67.9 L188.9 76.2 L183.3 89.0 L192.0 100.0 L183.3 111.0 L188.9 123.8 L177.6 132.1 L179.7 146.0 L166.6 151.1 L165.1 165.1 L151.1 166.6 L146.0 179.7 L132.1 177.6 L123.8 188.9 L111.0 183.3 L100.0 192.0 L89.0 183.3 L76.2 188.9 L67.9 177.6 L54.0 179.7 L48.9 166.6 L34.9 165.1 L33.4 151.1 L20.3 146.0 L22.4 132.1 L11.1 123.8 L16.7 111.0 L8.0 100.0 L16.7 89.0 L11.1 76.2 L22.4 67.9 L20.3 54.0 L33.4 48.9 L34.9 34.9 L48.9 33.4 L54.0 20.3 L67.9 22.4 L76.2 11.1 L89.0 16.7 Z" fill="#FBF9F2" stroke="#BE6341" stroke-width="3.5" stroke-linejoin="round"/><circle cx="100" cy="100" r="76" fill="none" stroke="#BE6341" stroke-width="1.6" stroke-dasharray="1 6" stroke-linecap="round"/><defs><path id="t" d="M44 104 A56 56 0 0 1 156 104"/><path id="b" d="M30 104 A70 70 0 0 0 170 104"/></defs><g fill="#BE6341" font-family="Balsamiq Sans, sans-serif" font-weight="700"><text font-size="16" letter-spacing="1.5"><textPath href="#t" startOffset="50%" text-anchor="middle">НЕДЕЛЯ</textPath></text><text font-size="14" letter-spacing="1.4"><textPath href="#b" startOffset="50%" text-anchor="middle">ПО ПОДПИСКЕ</textPath></text><text x="100" y="99" font-size="17" text-anchor="middle">7</text><text x="100" y="131" font-size="23" text-anchor="middle">7 ДНЕЙ</text></g><rect x="82" y="72" width="36" height="32" rx="6" fill="none" stroke="#BE6341" stroke-width="3.2"/><path d="M82 82 H118 M91 66 V76 M109 66 V76" stroke="#BE6341" stroke-width="3.2" stroke-linecap="round"/></svg>